<?xml version="1.0" encoding="UTF-8" standalone="no"?>
<!-- Created with Inkscape (http://www.inkscape.org/) -->

<svg
   xmlns:dc="http://purl.org/dc/elements/1.1/"
   xmlns:cc="http://creativecommons.org/ns#"
   xmlns:rdf="http://www.w3.org/1999/02/22-rdf-syntax-ns#"
   xmlns:svg="http://www.w3.org/2000/svg"
   xmlns="http://www.w3.org/2000/svg"
   xmlns:xlink="http://www.w3.org/1999/xlink"
   xmlns:sodipodi="http://sodipodi.sourceforge.net/DTD/sodipodi-0.dtd"
   xmlns:inkscape="http://www.inkscape.org/namespaces/inkscape"
   width="354.24002"
   height="690.78638"
   id="svg2"
   version="1.1"
   inkscape:version="0.91 r13725"
   sodipodi:docname="JapanesePostalbox.svg">
  <sodipodi:namedview
     id="base"
     pagecolor="#ffffff"
     bordercolor="#666666"
     borderopacity="1.0"
     inkscape:pageopacity="0.0"
     inkscape:pageshadow="2"
     inkscape:zoom="1.002826"
     inkscape:cx="177.12"
     inkscape:cy="313.77811"
     inkscape:document-units="px"
     inkscape:current-layer="g10510"
     showgrid="false"
     showguides="true"
     inkscape:guide-bbox="true"
     inkscape:snap-global="true"
     inkscape:snap-bbox="true"
     inkscape:window-width="1916"
     inkscape:window-height="1035"
     inkscape:window-x="4"
     inkscape:window-y="1"
     inkscape:window-maximized="1"
     inkscape:object-nodes="true"
     inkscape:snap-smooth-nodes="true"
     fit-margin-top="0"
     fit-margin-left="0"
     fit-margin-right="0"
     fit-margin-bottom="0">
    <inkscape:grid
       id="grid3168"
       type="xygrid"
       empspacing="5"
       visible="true"
       enabled="true"
       snapvisiblegridlinesonly="true"
       originx="-213.80888"
       originy="-182.02712" />
  </sodipodi:namedview>
  <defs
     id="defs4">
    <linearGradient
       inkscape:collect="always"
       id="linearGradient10544">
      <stop
         style="stop-color:#e76455;stop-opacity:1;"
         offset="0"
         id="stop10546" />
      <stop
         style="stop-color:#e76455;stop-opacity:0;"
         offset="1"
         id="stop10548" />
    </linearGradient>
    <linearGradient
       inkscape:collect="always"
       id="linearGradient10534">
      <stop
         style="stop-color:#ebe8e8;stop-opacity:1;"
         offset="0"
         id="stop10536" />
      <stop
         style="stop-color:#ebe8e8;stop-opacity:0;"
         offset="1"
         id="stop10538" />
    </linearGradient>
    <linearGradient
       inkscape:collect="always"
       id="linearGradient10487">
      <stop
         style="stop-color:#8e7d7d;stop-opacity:1;"
         offset="0"
         id="stop10489" />
      <stop
         style="stop-color:#8e7d7d;stop-opacity:0;"
         offset="1"
         id="stop10491" />
    </linearGradient>
    <linearGradient
       inkscape:collect="always"
       id="linearGradient4247">
      <stop
         style="stop-color:#908c60;stop-opacity:1;"
         offset="0"
         id="stop4249" />
      <stop
         style="stop-color:#6a6444;stop-opacity:1"
         offset="1"
         id="stop4251" />
    </linearGradient>
    <linearGradient
       inkscape:collect="always"
       id="linearGradient4231">
      <stop
         style="stop-color:#c4c1a6;stop-opacity:1"
         offset="0"
         id="stop4233" />
      <stop
         style="stop-color:#75714e;stop-opacity:1"
         offset="1"
         id="stop4235" />
    </linearGradient>
    <linearGradient
       inkscape:collect="always"
       id="linearGradient4042">
      <stop
         style="stop-color:#000000;stop-opacity:1;"
         offset="0"
         id="stop4044" />
      <stop
         style="stop-color:#000000;stop-opacity:0;"
         offset="1"
         id="stop4046" />
    </linearGradient>
    <linearGradient
       inkscape:collect="always"
       id="linearGradient3901">
      <stop
         style="stop-color:#d22815;stop-opacity:1"
         offset="0"
         id="stop3903" />
      <stop
         style="stop-color:#eb4836;stop-opacity:1"
         offset="1"
         id="stop3905" />
    </linearGradient>
    <linearGradient
       id="linearGradient4178">
      <stop
         style="stop-color:#ffffff;stop-opacity:1"
         offset="0"
         id="stop4180" />
      <stop
         id="stop4188"
         offset="0.1"
         style="stop-color:#e82e19;stop-opacity:1" />
      <stop
         id="stop4186"
         offset="0.5"
         style="stop-color:#aa2111;stop-opacity:1" />
      <stop
         style="stop-color:#e82e19;stop-opacity:1"
         offset="0.89999998"
         id="stop4190" />
      <stop
         style="stop-color:#ffffff;stop-opacity:1"
         offset="1"
         id="stop4182" />
    </linearGradient>
    <filter
       inkscape:collect="always"
       id="filter4163"
       style="color-interpolation-filters:sRGB">
      <feGaussianBlur
         inkscape:collect="always"
         stdDeviation="0.91999998"
         id="feGaussianBlur4165" />
    </filter>
    <filter
       inkscape:collect="always"
       id="filter4171"
       style="color-interpolation-filters:sRGB">
      <feGaussianBlur
         inkscape:collect="always"
         stdDeviation="0.46"
         id="feGaussianBlur4173" />
    </filter>
    <linearGradient
       inkscape:collect="always"
       xlink:href="#linearGradient4178"
       id="linearGradient4184"
       x1="587"
       y1="82.375"
       x2="607"
       y2="82.375"
       gradientUnits="userSpaceOnUse" />
    <filter
       inkscape:collect="always"
       id="filter3897"
       style="color-interpolation-filters:sRGB">
      <feGaussianBlur
         inkscape:collect="always"
         stdDeviation="1.1928015"
         id="feGaussianBlur3899" />
    </filter>
    <linearGradient
       inkscape:collect="always"
       xlink:href="#linearGradient3901"
       id="linearGradient3907"
       x1="597"
       y1="-7.6378174"
       x2="597"
       y2="232.36644"
       gradientUnits="userSpaceOnUse" />
    <filter
       inkscape:collect="always"
       id="filter3909"
       style="color-interpolation-filters:sRGB">
      <feGaussianBlur
         inkscape:collect="always"
         stdDeviation="1.3425"
         id="feGaussianBlur3911" />
    </filter>
    <filter
       inkscape:collect="always"
       id="filter3913"
       style="color-interpolation-filters:sRGB">
      <feGaussianBlur
         inkscape:collect="always"
         stdDeviation="1.3425"
         id="feGaussianBlur3915" />
    </filter>
    <linearGradient
       inkscape:collect="always"
       xlink:href="#linearGradient4042"
       id="linearGradient4048"
       x1="596.09137"
       y1="-42.183502"
       x2="596"
       y2="212.375"
       gradientUnits="userSpaceOnUse" />
    <filter
       inkscape:collect="always"
       id="filter4050"
       style="color-interpolation-filters:sRGB">
      <feGaussianBlur
         inkscape:collect="always"
         stdDeviation="3.1039844"
         id="feGaussianBlur4052" />
    </filter>
    <radialGradient
       inkscape:collect="always"
       xlink:href="#linearGradient4231"
       id="radialGradient4237"
       cx="690"
       cy="1696.5557"
       fx="690"
       fy="1696.5557"
       r="52.5"
       gradientTransform="matrix(1.8095239,7.3164029e-7,-5.3910287e-7,1.3333322,-558.57055,-564.71071)"
       gradientUnits="userSpaceOnUse" />
    <linearGradient
       inkscape:collect="always"
       xlink:href="#linearGradient4247"
       id="linearGradient4253"
       x1="598.92859"
       y1="1525.7014"
       x2="598.92859"
       y2="1569.9723"
       gradientUnits="userSpaceOnUse" />
    <linearGradient
       inkscape:collect="always"
       xlink:href="#linearGradient3901"
       id="linearGradient4581"
       gradientUnits="userSpaceOnUse"
       x1="597"
       y1="-7.6378174"
       x2="597"
       y2="232.36644" />
    <linearGradient
       inkscape:collect="always"
       xlink:href="#linearGradient4042"
       id="linearGradient4587"
       gradientUnits="userSpaceOnUse"
       x1="596.09137"
       y1="-42.183502"
       x2="596"
       y2="212.375" />
    <linearGradient
       inkscape:collect="always"
       xlink:href="#linearGradient4178"
       id="linearGradient4589"
       gradientUnits="userSpaceOnUse"
       x1="587"
       y1="82.375"
       x2="607"
       y2="82.375" />
    <linearGradient
       inkscape:collect="always"
       xlink:href="#linearGradient10487"
       id="linearGradient10493"
       x1="340.3334"
       y1="1792.9896"
       x2="819.17664"
       y2="1792.9896"
       gradientUnits="userSpaceOnUse"
       gradientTransform="translate(9.9906065,66.478797)" />
    <linearGradient
       inkscape:collect="always"
       xlink:href="#linearGradient10534"
       id="linearGradient10540"
       x1="411.83452"
       y1="659.00821"
       x2="757.79805"
       y2="659.00821"
       gradientUnits="userSpaceOnUse" />
    <linearGradient
       inkscape:collect="always"
       xlink:href="#linearGradient10544"
       id="linearGradient10550"
       x1="8"
       y1="807.375"
       x2="232.02927"
       y2="797.4032"
       gradientUnits="userSpaceOnUse" />
  </defs>
  <metadata
     id="metadata7">
    <rdf:RDF>
      <cc:Work
         rdf:about="">
        <dc:format>image/svg+xml</dc:format>
        <dc:type
           rdf:resource="http://purl.org/dc/dcmitype/StillImage" />
        <dc:title></dc:title>
      </cc:Work>
    </rdf:RDF>
  </metadata>
  <g
     style="display:inline"
     inkscape:label="posta"
     id="layer2"
     inkscape:groupmode="layer"
     transform="translate(-213.80888,-179.54869)">
    <g
       id="g4450"
       transform="matrix(0.3,0,0,0.3,211.82888,240.63619)">
      <g
         id="g10510"
         style="font-style:normal;font-weight:normal;font-size:133.33332825px;line-height:98.00000191%;font-family:sans-serif;letter-spacing:0px;word-spacing:0px;fill:url(#linearGradient10540);fill-opacity:1;stroke:none;stroke-width:1px;stroke-linecap:butt;stroke-linejoin:miter;stroke-opacity:1">
        <g
           id="g10602">
          <rect
             ry="0"
             y="1621.8066"
             x="352.19025"
             height="475.32339"
             width="475.11078"
             id="rect10483"
             style="display:inline;opacity:1;fill:#000000;fill-opacity:1;stroke:#000000;stroke-width:3.73247719;stroke-linecap:round;stroke-linejoin:round;stroke-miterlimit:4;stroke-dasharray:none;stroke-opacity:1" />
          <rect
             style="display:inline;opacity:1;fill:url(#linearGradient10493);fill-opacity:1;stroke:#000000;stroke-width:3.73247719;stroke-linecap:round;stroke-linejoin:round;stroke-miterlimit:4;stroke-dasharray:none;stroke-opacity:1"
             id="rect10485"
             width="475.11078"
             height="475.32339"
             x="352.19025"
             y="1621.8066"
             ry="0" />
          <path
             style="display:inline;fill:#e82e19;fill-opacity:1;stroke:none"
             d="m 597,-202.625 c -178.16296,0 -405.48001,33.20057 -572,80 -8.375455,2.35387 -17,5.92893 -17,13 l 0,1861 c 0,6.8936 6.718673,8.7917 12,10 192.98984,44.155 384.81959,56 577,56 192.18041,0 384.01016,-11.845 577,-56 5.2813,-1.2083 12,-3.1064 12,-10 l 0,-1861 c 0,-7.07107 -8.6245,-10.64613 -17,-13 -166.52,-46.79943 -393.83704,-80 -572,-80 z"
             id="path3173"
             inkscape:connector-curvature="0"
             sodipodi:nodetypes="zsssszssssz" />
          <path
             style="display:inline;fill:url(#linearGradient4581);fill-opacity:1;stroke:none"
             d="m 105,-47.625 0,215 c 0,11.27795 7.91714,19.17142 25,25 143.66786,49.01866 295.83456,81 467,81 171.16544,0 323.33214,-31.98134 467,-81 17.0829,-5.82858 25,-13.72205 25,-25 l 0,-215 z"
             id="path3233"
             inkscape:connector-curvature="0"
             sodipodi:nodetypes="cssssscc" />
          <path
             id="path4122"
             d="m 160,-37.637815 427,0 0,109.999998 -427,0 z"
             style="display:inline;fill:#000000;stroke:none;filter:url(#filter3913)"
             inkscape:connector-curvature="0"
             sodipodi:nodetypes="ccccc" />
          <path
             sodipodi:nodetypes="sccccs"
             inkscape:connector-curvature="0"
             id="path3204"
             d="m 597,-203.625 c -160.67972,0 -305.36603,16.88459 -427,36 l -3,113 860,0 -3,-113 c -121.63397,-19.11541 -266.32028,-36 -427,-36 z"
             style="display:inline;fill:#e82e19;fill-opacity:1;stroke:none" />
          <path
             style="display:inline;fill:#78603c;fill-opacity:1;stroke:none"
             d="m 587,-37.637817 c 0,0 -427,0 -427,0 0,0 0,105 0,105 0,0 427,0 427,0 0,0 0,-105 0,-105"
             id="path4176"
             inkscape:connector-curvature="0" />
          <path
             style="display:inline;fill:#000000;stroke:none;filter:url(#filter3909)"
             d="m 1034,-37.637815 -426.99999,0 0,109.999998 426.99999,0 0,-109.999998"
             id="path4124"
             inkscape:connector-curvature="0"
             sodipodi:nodetypes="ccccc" />
          <path
             sodipodi:nodetypes="zsssszssssz"
             inkscape:connector-curvature="0"
             id="path10542"
             d="m 597,-202.625 c -178.16296,0 -405.48001,33.20057 -572,80 -8.375455,2.35387 -17,5.92893 -17,13 l 0,1861 c 0,6.8936 6.718673,8.7917 12,10 192.98984,44.155 384.81959,56 577,56 192.18041,0 384.01016,-11.845 577,-56 5.2813,-1.2083 12,-3.1064 12,-10 l 0,-1861 c 0,-7.07107 -8.6245,-10.64613 -17,-13 -166.52,-46.79943 -393.83704,-80 -572,-80 z"
             style="display:inline;fill:url(#linearGradient10550);fill-opacity:1;stroke:none" />
          <path
             inkscape:connector-curvature="0"
             id="path4069"
             d="m 1034,-37.637817 c 0,0 -426.99999,0 -426.99999,0 0,0 0,105 0,105 0,0 426.99999,0 426.99999,0 0,0 0,-105 0,-105"
             style="display:inline;fill:#78603c;fill-opacity:1;stroke:none" />
          <g
             style="display:inline;fill:#e6e3e3;fill-opacity:1"
             id="g4192">
            <path
               inkscape:connector-curvature="0"
               style="opacity:0.8;fill:#e6e3e3;fill-opacity:1;stroke:#ffffff;stroke-width:4;stroke-linecap:butt;stroke-linejoin:miter;stroke-miterlimit:4;stroke-dasharray:none;stroke-dashoffset:0;stroke-opacity:1;filter:url(#filter4163)"
               d="m 246.32577,88.433611 236.06278,0 c 5.3379,0 9.31423,4.470024 9.63521,10 l 4.81761,82.999989 c 0.32098,5.52998 -4.29731,10 -9.63522,10 l -245.69798,0 c -5.33791,0 -9.9562,-4.47002 -9.63522,-10 l 4.81761,-82.999989 c 0.32098,-5.529976 4.29731,-10 9.63521,-10 z"
               id="path4101" />
            <path
               inkscape:connector-curvature="0"
               style="fill:#e6e3e3;fill-opacity:1;stroke:none"
               d="m 244.46861,87.362182 236.06278,0 c 5.3379,0 9.31423,4.470024 9.63521,10 l 4.81761,82.999998 c 0.32098,5.52998 -4.29731,10 -9.63522,10 l -245.69798,0 c -5.33791,0 -9.9562,-4.47002 -9.63522,-10 l 4.81761,-82.999998 c 0.32098,-5.529976 4.29731,-10 9.63521,-10 z"
               id="path4085" />
            <path
               id="rect4120"
               d="m 244.46861,87.362182 236.06278,0 c 5.3379,0 9.31423,4.470024 9.63521,10 l 4.81761,82.999998 c 0.32098,5.52998 -4.29731,10 -9.63522,10 l -245.69798,0 c -5.33791,0 -9.9562,-4.47002 -9.63522,-10 l 4.81761,-82.999998 c 0.32098,-5.529976 4.29731,-10 9.63521,-10 z"
               style="fill:#e6e3e3;fill-opacity:1;stroke:#000000;stroke-width:4;stroke-linecap:butt;stroke-linejoin:miter;stroke-miterlimit:4;stroke-dasharray:none;stroke-dashoffset:0;stroke-opacity:1;filter:url(#filter4171)"
               inkscape:connector-curvature="0" />
          </g>
          <g
             style="display:inline;fill:#e6e3e3;fill-opacity:1"
             id="g4197"
             transform="translate(467.51943,-1.0714233)">
            <path
               id="path4199"
               d="m 246.32577,88.433611 236.06278,0 c 5.3379,0 9.31423,4.470024 9.63521,10 l 4.81761,82.999989 c 0.32098,5.52998 -4.29731,10 -9.63522,10 l -245.69798,0 c -5.33791,0 -9.9562,-4.47002 -9.63522,-10 l 4.81761,-82.999989 c 0.32098,-5.529976 4.29731,-10 9.63521,-10 z"
               style="opacity:0.8;fill:#e6e3e3;fill-opacity:1;stroke:#ffffff;stroke-width:4;stroke-linecap:butt;stroke-linejoin:miter;stroke-miterlimit:4;stroke-dasharray:none;stroke-dashoffset:0;stroke-opacity:1;filter:url(#filter4163)"
               inkscape:connector-curvature="0" />
            <path
               id="path4201"
               d="m 244.46861,87.362182 236.06278,0 c 5.3379,0 9.31423,4.470024 9.63521,10 l 4.81761,82.999998 c 0.32098,5.52998 -4.29731,10 -9.63522,10 l -245.69798,0 c -5.33791,0 -9.9562,-4.47002 -9.63522,-10 l 4.81761,-82.999998 c 0.32098,-5.529976 4.29731,-10 9.63521,-10 z"
               style="fill:#e6e3e3;fill-opacity:1;stroke:none"
               inkscape:connector-curvature="0" />
            <path
               inkscape:connector-curvature="0"
               style="fill:#e6e3e3;fill-opacity:1;stroke:#000000;stroke-width:4;stroke-linecap:butt;stroke-linejoin:miter;stroke-miterlimit:4;stroke-dasharray:none;stroke-dashoffset:0;stroke-opacity:1;filter:url(#filter4171)"
               d="m 244.46861,87.362182 236.06278,0 c 5.3379,0 9.31423,4.470024 9.63521,10 l 4.81761,82.999998 c 0.32098,5.52998 -4.29731,10 -9.63522,10 l -245.69798,0 c -5.33791,0 -9.9562,-4.47002 -9.63522,-10 l 4.81761,-82.999998 c 0.32098,-5.529976 4.29731,-10 9.63521,-10 z"
               id="path4203" />
          </g>
          <path
             inkscape:connector-curvature="0"
             style="display:inline;fill:#d22815;fill-opacity:1;stroke:none"
             d="m 105,-47.625 0,215 c 0,3.65532 0.82537,6.94832 2.53125,9.9375 L 160,72.375 l 0,-110 -55,-10 z"
             id="path3075" />
          <path
             inkscape:connector-curvature="0"
             style="display:inline;fill:#d22815;fill-opacity:1;stroke:none"
             d="m 1089,-47.625 -55,10 0,110 52.4688,104.9375 c 1.7058,-2.98918 2.5312,-6.28218 2.5312,-9.9375 l 0,-215 z"
             id="path3077" />
          <path
             style="display:inline;opacity:0.5;fill:none;stroke:#ffffff;stroke-width:5;stroke-linecap:round;stroke-linejoin:miter;stroke-miterlimit:4;stroke-dasharray:none;stroke-opacity:1;filter:url(#filter3897)"
             d="m 175,-162.63782 -2.96487,104.311406 849.92977,0 L 1019,-162.63782"
             id="path3123"
             inkscape:connector-curvature="0"
             sodipodi:nodetypes="cccc" />
          <path
             style="display:inline;opacity:0.7;fill:url(#linearGradient4587);fill-opacity:1;stroke:none;filter:url(#filter4050)"
             d="M 105,-47.625 C 105,93.425088 321.45985,207.97757 589.90625,209.96875 588.12937,208.32679 587,205.99632 587,203.375 l 0,-251 -482,0 z m 502,0 0,251 c 0,2.62132 -1.12937,4.95179 -2.90625,6.59375 C 872.54015,207.97757 1089,93.425088 1089,-47.625 l -482,0 z"
             id="path3981"
             inkscape:connector-curvature="0" />
          <path
             inkscape:connector-curvature="0"
             style="display:inline;fill:url(#linearGradient4589);fill-opacity:1;stroke:none"
             d="m 587,-47.625 0,251 c 0,4.986 4.014,9 9,9 l 2,0 c 4.986,0 9,-4.014 9,-9 l 0,-251 -20,0 z"
             id="rect3288" />
          <rect
             ry="14.859749"
             y="-136.64127"
             x="225.16685"
             height="47.281017"
             width="319.9892"
             id="rect10469"
             style="display:inline;opacity:1;fill:#e6e3e3;fill-opacity:1;stroke:#000000;stroke-width:3.33333325;stroke-linecap:round;stroke-linejoin:round;stroke-miterlimit:4;stroke-dasharray:none;stroke-opacity:1" />
          <rect
             style="display:inline;opacity:1;fill:#e6e3e3;fill-opacity:1;stroke:#000000;stroke-width:3.33333325;stroke-linecap:round;stroke-linejoin:round;stroke-miterlimit:4;stroke-dasharray:none;stroke-opacity:1"
             id="rect10471"
             width="319.9892"
             height="47.281017"
             x="636.64087"
             y="-138.06999"
             ry="14.859749" />
          <g
             id="g10560">
            <g
               style="display:inline;font-style:normal;font-weight:normal;font-size:133.33332825px;line-height:98.00000191%;font-family:sans-serif;letter-spacing:0px;word-spacing:0px;fill:#000000;fill-opacity:1;stroke:none;stroke-width:1px;stroke-linecap:butt;stroke-linejoin:miter;stroke-opacity:1"
               id="text10475">
              <path
                 d="m 528.7616,483.30617 -11.32813,0 0,16.99219 8.52865,0 0,9.70052 -29.03646,0 0,13.47656 30.40365,-3.32031 0,9.70052 -70.83333,8.00781 -4.5573,-9.96093 q 27.47396,-2.08334 34.83073,-3.25521 l 0,-14.64844 -28.77604,0 0,-9.70052 8.52865,0 0,-16.99219 -13.47656,0 0,-9.70052 13.47656,0 0,-16.53645 -8.78906,0 0,-9.70052 29.03645,0 0,-8.00782 q -19.72656,2.40886 -25.58593,2.21355 -0.52084,-1.17188 -2.21355,-4.36198 -1.6927,-3.25521 -2.34375,-5.33855 37.30469,-0.84635 61.84896,-10.67708 l 4.55729,7.87761 q -9.11458,5.14322 -26.10677,8.52864 l 0,9.76563 29.03646,0 0,9.70052 -8.52865,0 0,16.53645 11.32813,0 0,9.70052 z m -21.48438,-9.70052 0,-16.53645 -10.35156,0 0,16.53645 10.35156,0 z m -20.50781,0 0,-16.53645 -10.15625,0 0,16.53645 10.15625,0 z m 20.50781,26.69271 0,-16.99219 -10.35156,0 0,16.99219 10.35156,0 z m -20.50781,0 0,-16.99219 -10.15625,0 0,16.99219 10.15625,0 z m 70.3776,-28.32031 q 13.47657,13.67187 13.47657,32.42187 0,6.44532 -5.66407,11.78386 -5.66406,5.27343 -12.04427,4.7526 l -8.52864,-0.65104 q -2.92969,-8.59375 -2.92969,-10.67708 9.3099,1.75781 11.19792,1.75781 7.8776,0 7.8776,-8.59375 0,-16.60156 -13.99739,-27.99479 l 11.45833,-37.69531 -17.64323,0 0,104.10156 -10.09115,0 0,-113.86719 38.54167,0 0,8.52865 -11.65365,36.13281 z"
                 style="line-height:98.00000191%;text-align:center;text-anchor:middle;fill:#ffffff"
                 id="path10496" />
              <path
                 d="m 704.60795,529.72544 -4.88282,10.67709 q -26.75781,-2.73438 -50.58593,-13.73698 -10.35156,8.72396 -28.51563,14.25781 l -5.72916,-9.4401 q 18.16406,-4.6224 24.80468,-10.54688 -7.8776,-5.92448 -14.25781,-13.73698 l 7.22656,-6.25 q 8.00782,9.44011 14.90886,13.08594 5.27344,-5.85937 7.03125,-16.27604 l -28.51563,0 0,-50.13021 28.71094,0 0,-9.50521 -32.8125,0 0,-8.00781 q -2.08333,7.68229 -5.98958,17.64323 l -3.90625,9.17969 0,84.83072 -10.28646,0 0,-66.27604 q -3.05989,5.85938 -9.57031,12.5 l -8.26823,-6.11979 q 22.33073,-25.97656 30.53385,-61.0677 l 8.91927,3.97135 -0.91146,3.64583 78.64584,0 0,9.70052 -36.26302,0 0,9.50521 29.10156,0 0,50.13021 -28.97136,0 q -1.36718,10.41667 -8.26822,21.15885 21.02864,10.80729 47.85156,10.80729 z m -20.76823,-62.49999 0,-9.89584 -18.94531,0 0,9.89584 18.94531,0 z m -29.03646,0 0,-9.89584 -18.55469,0 0,9.89584 18.55469,0 z m 29.03646,20.76822 0,-11.0677 -18.94531,0 0,11.0677 18.94531,0 z m -29.03646,0 0,-11.0677 -18.55469,0 0,11.0677 18.55469,0 z"
                 style="line-height:98.00000191%;text-align:center;text-anchor:middle;fill:#ffffff"
                 id="path10498" />
              <path
                 d="m 654.70561,585.44568 -152.66927,0 0,-16.06445 152.66927,0 0,16.06445 z m 0,37.14193 -67.44792,0 0,122.47721 -17.77344,0 0,-122.47721 -67.44791,0 0,-15.95052 152.66927,0 0,15.95052 z"
                 style="font-size:233.33332825px;line-height:98.00000191%;text-align:center;text-anchor:middle;fill:#ffffff"
                 id="path10500" />
              <path
                 d="m 475.24598,827.54877 q 0,6.44531 -2.27865,11.97917 -2.21354,5.46875 -6.25,9.50521 -5.01302,5.01302 -11.84896,7.55208 -6.83594,2.47396 -17.2526,2.47396 l -12.89063,0 0,36.13281 -12.89062,0 0,-96.9401 26.30208,0 q 8.72396,0 14.77865,1.49739 6.05468,1.4323 10.74218,4.5573 5.53386,3.71093 8.52865,9.24479 3.0599,5.53385 3.0599,13.99739 z m -13.41146,0.32552 q 0,-5.01302 -1.75781,-8.72395 -1.75782,-3.71094 -5.33855,-6.05469 -3.125,-2.01823 -7.16145,-2.86459 -3.97136,-0.91145 -10.09115,-0.91145 l -12.76042,0 0,38.73697 10.8724,0 q 7.8125,0 12.69531,-1.36718 4.88281,-1.4323 7.94271,-4.49219 3.0599,-3.125 4.29687,-6.57552 1.30209,-3.45052 1.30209,-7.7474 z"
                 style="line-height:98.00000191%;text-align:center;text-anchor:middle;fill:#ffffff"
                 id="path10502" />
              <path
                 d="m 564.56889,809.38471 q 5.92448,6.51042 9.04948,15.95052 3.1901,9.4401 3.1901,21.41927 0,11.97917 -3.2552,21.48437 -3.19011,9.44011 -8.98438,15.75521 -5.98958,6.57552 -14.19271,9.89584 -8.13802,3.32031 -18.61979,3.32031 -10.22135,0 -18.61979,-3.38542 -8.33333,-3.38542 -14.19271,-9.83073 -5.85937,-6.44531 -9.04947,-15.82031 -3.125,-9.375 -3.125,-21.41927 0,-11.84896 3.125,-21.22396 3.125,-9.4401 9.11458,-16.14583 5.72917,-6.38021 14.19271,-9.76562 8.52864,-3.38542 18.55468,-3.38542 10.41667,0 18.6849,3.45052 8.33333,3.38542 14.1276,9.70052 z m -1.17187,37.36979 q 0,-18.88021 -8.46354,-29.10156 -8.46355,-10.28646 -23.11198,-10.28646 -14.77865,0 -23.24219,10.28646 -8.39844,10.22135 -8.39844,29.10156 0,19.07552 8.59375,29.23177 8.59375,10.09115 23.04688,10.09115 14.45312,0 22.98177,-10.09115 8.59375,-10.15625 8.59375,-29.23177 z"
                 style="line-height:98.00000191%;text-align:center;text-anchor:middle;fill:#ffffff"
                 id="path10504" />
              <path
                 d="m 667.9543,867.45273 q 0,5.66406 -2.66927,11.19792 -2.60416,5.53385 -7.35677,9.37499 -5.20833,4.16667 -12.17448,6.51042 -6.90104,2.34375 -16.66666,2.34375 -10.48177,0 -18.88021,-1.95312 -8.33333,-1.95313 -16.99219,-5.79427 l 0,-16.14584 0.91146,0 q 7.35677,6.11979 16.99219,9.44011 9.63541,3.32031 18.09896,3.32031 11.97916,0 18.61979,-4.49219 6.70573,-4.49219 6.70573,-11.97916 0,-6.44532 -3.19011,-9.50521 -3.125,-3.0599 -9.57031,-4.75261 -4.88281,-1.30208 -10.61198,-2.14843 -5.66406,-0.84636 -12.04427,-2.14844 -12.89062,-2.73438 -19.14062,-9.3099 -6.1849,-6.64062 -6.1849,-17.2526 0,-12.17448 10.28646,-19.92187 10.28646,-7.8125 26.10677,-7.8125 10.22135,0 18.75,1.95312 8.52864,1.95313 15.10416,4.81771 l 0,15.23437 -0.91145,0 q -5.53386,-4.6875 -14.58334,-7.74739 -8.98437,-3.125 -18.42448,-3.125 -10.35156,0 -16.66666,4.29687 -6.25,4.29688 -6.25,11.06771 0,6.05469 3.125,9.50521 3.125,3.45052 11.0026,5.27344 4.16667,0.91145 11.84896,2.21354 7.68229,1.30208 13.02083,2.66927 10.80729,2.86458 16.27604,8.65885 5.46875,5.79427 5.46875,16.21094 z"
                 style="line-height:98.00000191%;text-align:center;text-anchor:middle;fill:#ffffff"
                 id="path10506" />
              <path
                 d="m 757.79805,809.64023 -34.63542,0 0,85.48177 -12.89062,0 0,-85.48177 -34.63542,0 0,-11.45833 82.16146,0 0,11.45833 z"
                 style="line-height:98.00000191%;text-align:center;text-anchor:middle;fill:#ffffff"
                 id="path10508" />
            </g>
            <path
               id="path10512"
               style="line-height:98.00000191%;text-align:center;text-anchor:middle;fill:url(#linearGradient10540);fill-opacity:1"
               d="m 528.7616,483.30617 -11.32813,0 0,16.99219 8.52865,0 0,9.70052 -29.03646,0 0,13.47656 30.40365,-3.32031 0,9.70052 -70.83333,8.00781 -4.5573,-9.96093 q 27.47396,-2.08334 34.83073,-3.25521 l 0,-14.64844 -28.77604,0 0,-9.70052 8.52865,0 0,-16.99219 -13.47656,0 0,-9.70052 13.47656,0 0,-16.53645 -8.78906,0 0,-9.70052 29.03645,0 0,-8.00782 q -19.72656,2.40886 -25.58593,2.21355 -0.52084,-1.17188 -2.21355,-4.36198 -1.6927,-3.25521 -2.34375,-5.33855 37.30469,-0.84635 61.84896,-10.67708 l 4.55729,7.87761 q -9.11458,5.14322 -26.10677,8.52864 l 0,9.76563 29.03646,0 0,9.70052 -8.52865,0 0,16.53645 11.32813,0 0,9.70052 z m -21.48438,-9.70052 0,-16.53645 -10.35156,0 0,16.53645 10.35156,0 z m -20.50781,0 0,-16.53645 -10.15625,0 0,16.53645 10.15625,0 z m 20.50781,26.69271 0,-16.99219 -10.35156,0 0,16.99219 10.35156,0 z m -20.50781,0 0,-16.99219 -10.15625,0 0,16.99219 10.15625,0 z m 70.3776,-28.32031 q 13.47657,13.67187 13.47657,32.42187 0,6.44532 -5.66407,11.78386 -5.66406,5.27343 -12.04427,4.7526 l -8.52864,-0.65104 q -2.92969,-8.59375 -2.92969,-10.67708 9.3099,1.75781 11.19792,1.75781 7.8776,0 7.8776,-8.59375 0,-16.60156 -13.99739,-27.99479 l 11.45833,-37.69531 -17.64323,0 0,104.10156 -10.09115,0 0,-113.86719 38.54167,0 0,8.52865 -11.65365,36.13281 z" />
            <path
               id="path10514"
               style="line-height:98.00000191%;text-align:center;text-anchor:middle;fill:url(#linearGradient10540);fill-opacity:1"
               d="m 704.60795,529.72544 -4.88282,10.67709 q -26.75781,-2.73438 -50.58593,-13.73698 -10.35156,8.72396 -28.51563,14.25781 l -5.72916,-9.4401 q 18.16406,-4.6224 24.80468,-10.54688 -7.8776,-5.92448 -14.25781,-13.73698 l 7.22656,-6.25 q 8.00782,9.44011 14.90886,13.08594 5.27344,-5.85937 7.03125,-16.27604 l -28.51563,0 0,-50.13021 28.71094,0 0,-9.50521 -32.8125,0 0,-8.00781 q -2.08333,7.68229 -5.98958,17.64323 l -3.90625,9.17969 0,84.83072 -10.28646,0 0,-66.27604 q -3.05989,5.85938 -9.57031,12.5 l -8.26823,-6.11979 q 22.33073,-25.97656 30.53385,-61.0677 l 8.91927,3.97135 -0.91146,3.64583 78.64584,0 0,9.70052 -36.26302,0 0,9.50521 29.10156,0 0,50.13021 -28.97136,0 q -1.36718,10.41667 -8.26822,21.15885 21.02864,10.80729 47.85156,10.80729 z m -20.76823,-62.49999 0,-9.89584 -18.94531,0 0,9.89584 18.94531,0 z m -29.03646,0 0,-9.89584 -18.55469,0 0,9.89584 18.55469,0 z m 29.03646,20.76822 0,-11.0677 -18.94531,0 0,11.0677 18.94531,0 z m -29.03646,0 0,-11.0677 -18.55469,0 0,11.0677 18.55469,0 z" />
            <path
               id="path10516"
               style="font-size:233.33332825px;line-height:98.00000191%;text-align:center;text-anchor:middle;fill:url(#linearGradient10540);fill-opacity:1"
               d="m 654.70561,585.44568 -152.66927,0 0,-16.06445 152.66927,0 0,16.06445 z m 0,37.14193 -67.44792,0 0,122.47721 -17.77344,0 0,-122.47721 -67.44791,0 0,-15.95052 152.66927,0 0,15.95052 z" />
            <path
               id="path10518"
               style="line-height:98.00000191%;text-align:center;text-anchor:middle;fill:url(#linearGradient10540);fill-opacity:1"
               d="m 475.24598,827.54877 q 0,6.44531 -2.27865,11.97917 -2.21354,5.46875 -6.25,9.50521 -5.01302,5.01302 -11.84896,7.55208 -6.83594,2.47396 -17.2526,2.47396 l -12.89063,0 0,36.13281 -12.89062,0 0,-96.9401 26.30208,0 q 8.72396,0 14.77865,1.49739 6.05468,1.4323 10.74218,4.5573 5.53386,3.71093 8.52865,9.24479 3.0599,5.53385 3.0599,13.99739 z m -13.41146,0.32552 q 0,-5.01302 -1.75781,-8.72395 -1.75782,-3.71094 -5.33855,-6.05469 -3.125,-2.01823 -7.16145,-2.86459 -3.97136,-0.91145 -10.09115,-0.91145 l -12.76042,0 0,38.73697 10.8724,0 q 7.8125,0 12.69531,-1.36718 4.88281,-1.4323 7.94271,-4.49219 3.0599,-3.125 4.29687,-6.57552 1.30209,-3.45052 1.30209,-7.7474 z" />
            <path
               id="path10520"
               style="line-height:98.00000191%;text-align:center;text-anchor:middle;fill:url(#linearGradient10540);fill-opacity:1"
               d="m 564.56889,809.38471 q 5.92448,6.51042 9.04948,15.95052 3.1901,9.4401 3.1901,21.41927 0,11.97917 -3.2552,21.48437 -3.19011,9.44011 -8.98438,15.75521 -5.98958,6.57552 -14.19271,9.89584 -8.13802,3.32031 -18.61979,3.32031 -10.22135,0 -18.61979,-3.38542 -8.33333,-3.38542 -14.19271,-9.83073 -5.85937,-6.44531 -9.04947,-15.82031 -3.125,-9.375 -3.125,-21.41927 0,-11.84896 3.125,-21.22396 3.125,-9.4401 9.11458,-16.14583 5.72917,-6.38021 14.19271,-9.76562 8.52864,-3.38542 18.55468,-3.38542 10.41667,0 18.6849,3.45052 8.33333,3.38542 14.1276,9.70052 z m -1.17187,37.36979 q 0,-18.88021 -8.46354,-29.10156 -8.46355,-10.28646 -23.11198,-10.28646 -14.77865,0 -23.24219,10.28646 -8.39844,10.22135 -8.39844,29.10156 0,19.07552 8.59375,29.23177 8.59375,10.09115 23.04688,10.09115 14.45312,0 22.98177,-10.09115 8.59375,-10.15625 8.59375,-29.23177 z" />
            <path
               id="path10522"
               style="line-height:98.00000191%;text-align:center;text-anchor:middle;fill:url(#linearGradient10540);fill-opacity:1"
               d="m 667.9543,867.45273 q 0,5.66406 -2.66927,11.19792 -2.60416,5.53385 -7.35677,9.37499 -5.20833,4.16667 -12.17448,6.51042 -6.90104,2.34375 -16.66666,2.34375 -10.48177,0 -18.88021,-1.95312 -8.33333,-1.95313 -16.99219,-5.79427 l 0,-16.14584 0.91146,0 q 7.35677,6.11979 16.99219,9.44011 9.63541,3.32031 18.09896,3.32031 11.97916,0 18.61979,-4.49219 6.70573,-4.49219 6.70573,-11.97916 0,-6.44532 -3.19011,-9.50521 -3.125,-3.0599 -9.57031,-4.75261 -4.88281,-1.30208 -10.61198,-2.14843 -5.66406,-0.84636 -12.04427,-2.14844 -12.89062,-2.73438 -19.14062,-9.3099 -6.1849,-6.64062 -6.1849,-17.2526 0,-12.17448 10.28646,-19.92187 10.28646,-7.8125 26.10677,-7.8125 10.22135,0 18.75,1.95312 8.52864,1.95313 15.10416,4.81771 l 0,15.23437 -0.91145,0 q -5.53386,-4.6875 -14.58334,-7.74739 -8.98437,-3.125 -18.42448,-3.125 -10.35156,0 -16.66666,4.29687 -6.25,4.29688 -6.25,11.06771 0,6.05469 3.125,9.50521 3.125,3.45052 11.0026,5.27344 4.16667,0.91145 11.84896,2.21354 7.68229,1.30208 13.02083,2.66927 10.80729,2.86458 16.27604,8.65885 5.46875,5.79427 5.46875,16.21094 z" />
            <path
               id="path10524"
               style="line-height:98.00000191%;text-align:center;text-anchor:middle;fill:url(#linearGradient10540);fill-opacity:1"
               d="m 757.79805,809.64023 -34.63542,0 0,85.48177 -12.89062,0 0,-85.48177 -34.63542,0 0,-11.45833 82.16146,0 0,11.45833 z" />
          </g>
        </g>
      </g>
    </g>
  </g>
</svg>
